<?xml version="1.0" encoding="UTF-8" standalone="no"?>
<svg
   id="svg8"
   version="1.1"
   viewBox="0 0 32 32"
   height="32"
   width="32"
   xmlns="http://www.w3.org/2000/svg"
   xmlns:svg="http://www.w3.org/2000/svg"
   xmlns:rdf="http://www.w3.org/1999/02/22-rdf-syntax-ns#"
   xmlns:cc="http://creativecommons.org/ns#"
   xmlns:dc="http://purl.org/dc/elements/1.1/">
  <defs
     id="defs2" />
  <metadata
     id="metadata5">
    <rdf:RDF>
      <cc:Work
         rdf:about="">
        <dc:format>image/svg+xml</dc:format>
        <dc:type
           rdf:resource="http://purl.org/dc/dcmitype/StillImage" />
      </cc:Work>
    </rdf:RDF>
  </metadata>
  <g
     id="layer1">
    <path
       style="fill:#7137c8;fill-opacity:1;stroke-width:0.109871"
       d="M 4.7357997,30.342096 C 3.30169,30.156307 2.3106037,29.21096 2.1061217,27.833712 c -0.036021,-0.242521 -0.044761,-0.60543 -0.044698,-1.853105 2.96e-5,-0.948454 0.012612,-1.653217 0.032033,-1.813161 0.093538,-0.766478 0.366338,-1.366122 0.8493761,-1.867048 0.6105753,-0.633153 1.4688804,-0.945021 2.4761025,-0.899641 0.8276441,0.03727 1.4792339,0.309055 2.0514463,0.855557 0.3172739,0.30304 0.53101,0.593333 0.6959686,0.945376 0.095775,0.204358 0.2613792,0.698587 0.2613792,0.780062 0,0.01456 -0.3920531,0.02557 -0.8939201,0.02522 H 6.6398928 l -0.06809,-0.157326 c -0.217585,-0.502733 -0.9386147,-0.825923 -1.5954793,-0.715143 -0.3991657,0.06734 -0.7408593,0.292109 -0.9520731,0.626359 -0.2359884,0.373425 -0.2466599,0.467514 -0.2472447,2.182186 0,0.930727 0.011013,1.517624 0.031377,1.627922 0.097582,0.529585 0.5062965,0.924356 1.0789293,1.042122 0.5868049,0.12068 1.130814,-0.01131 1.4784237,-0.35903 0.2553328,-0.255363 0.380767,-0.573152 0.4166677,-1.055676 l 0.016816,-0.225282 H 6.1309383 5.4627257 V 26.173702 25.37426 H 6.992611 8.522491 L 8.507274,26.457108 C 8.491105,27.619519 8.471433,27.814852 8.322777,28.286244 8.0113932,29.273476 7.2436223,30.006963 6.2576166,30.259158 5.8260697,30.369517 5.2064057,30.40345 4.7357898,30.342478 Z M 15.96522,27.292486 c -0.436948,-0.155319 -0.731514,-0.524149 -0.790638,-0.989885 -0.01586,-0.125045 -0.0345,-2.581096 -0.04415,-5.812516 -0.0091,-3.077817 -0.02522,-7.210469 -0.03584,-9.183638 L 15.075522,7.7188084 13.00839,7.7382254 C 10.747408,7.7595941 10.751582,7.7595941 10.465169,7.5918963 10.054708,7.3513782 9.8170374,6.8584099 9.8824727,6.3830692 9.9304409,6.0345842 10.162255,5.6874904 10.46591,5.5095291 c 0.271664,-0.1592372 0.260087,-0.158522 3.209623,-0.1922254 2.446347,-0.027826 2.751424,-0.026525 2.907003,0.013914 0.452668,0.1178665 0.7974,0.4914166 0.883535,0.957378 0.01842,0.1000136 0.03168,0.5496087 0.03168,1.0816159 v 0.9104802 l 3.682506,-0.00746 3.682537,-0.00746 0.127536,-0.210308 c 0.259537,-0.4280841 0.758972,-0.8673941 1.213937,-1.0678676 0.359061,-0.1582317 0.601486,-0.2041924 1.075601,-0.203837 0.33425,0 0.483428,0.012916 0.639072,0.054889 1.01385,0.2724704 1.777225,1.0743994 1.978925,2.0788396 0.07155,0.3562473 0.04641,0.9147803 -0.05673,1.2607732 -0.343956,1.153647 -1.366413,1.919286 -2.561266,1.917929 -0.653112,0 -1.184018,-0.190349 -1.709689,-0.61061 -0.201639,-0.161205 -0.482362,-0.488894 -0.586189,-0.684287 l -0.05751,-0.108162 H 21.207358 17.48827 l 0.01942,1.37359 c 0.01066,0.755452 0.01907,1.743105 0.01942,2.194768 l 3e-5,0.821238 3.65556,-6.5e-5 3.655595,-6.4e-5 0.086,-0.164604 c 0.20303,-0.388525 0.591009,-0.780547 1.009489,-1.019964 1.22199,-0.699203 2.792045,-0.314943 3.561727,0.871697 0.287224,0.442768 0.414986,0.888966 0.415307,1.450281 0,0.581241 -0.129539,1.012623 -0.449591,1.493659 -0.347645,0.522432 -0.912389,0.921797 -1.550295,1.096266 -0.330567,0.0904 -0.969995,0.08888 -1.313886,-0.0031 -0.644924,-0.172591 -1.217105,-0.579103 -1.569439,-1.115029 l -0.128993,-0.19617 h -3.68574 -3.68574 l 3.1e-5,0.67588 c 0,0.371738 0.0087,1.293991 0.01942,2.049439 l 0.01942,1.373595 h 3.642558 3.642557 l 0.158652,-0.239837 c 0.859601,-1.299232 2.554574,-1.6255 3.812179,-0.733781 0.195975,0.138957 0.509981,0.46001 0.652492,0.66715 0.147526,0.214447 0.314101,0.595114 0.383644,0.876903 0.08888,0.360062 0.08888,0.882789 0,1.242856 -0.310026,1.255853 -1.460795,2.114519 -2.73748,2.042613 -0.910156,-0.05123 -1.649593,-0.497853 -2.16097,-1.305118 l -0.105929,-0.167256 -3.641327,0.0075 -3.641331,0.0075 -0.01456,1.235478 -0.01456,1.235479 -0.09018,0.190318 c -0.152766,0.322384 -0.392119,0.537317 -0.721714,0.648127 -0.194233,0.06534 -0.566005,0.06048 -0.764087,-0.01002 z M 4.8364252,20.428694 C 3.4928452,20.28728 2.5084295,19.443433 2.1774766,18.149407 2.0735841,17.74319 2.0558916,17.347803 2.0695401,15.737089 c 0.01422,-1.687822 0.02137,-1.767425 0.197205,-2.270649 0.2656182,-0.759522 0.7418995,-1.298876 1.4693654,-1.663822 0.4882177,-0.244918 0.976562,-0.336709 1.6828114,-0.316334 0.5483783,0.01586 0.8464379,0.07543 1.2796664,0.255783 0.6981667,0.290653 1.2984863,0.920342 1.5708964,1.647847 0.1983063,0.52955 0.1966544,0.510046 0.208721,2.419857 0.01166,1.841719 0.00305,2.016381 -0.1253381,2.464585 -0.426918,1.494209 -1.7993823,2.335017 -3.5164424,2.154338 z m 0.902293,-1.693131 c 0.4880533,-0.131256 0.8673642,-0.530391 0.9872327,-1.038919 0.064847,-0.275157 0.064847,-3.207876 0,-3.483034 -0.063814,-0.270628 -0.1993772,-0.502932 -0.406837,-0.697001 -0.2976357,-0.278425 -0.573894,-0.380376 -1.0321576,-0.380957 -0.4710721,0 -0.7924844,0.119869 -1.0749193,0.40276 -0.2102086,0.210563 -0.3385559,0.47036 -0.3955474,0.800568 -0.036147,0.209692 -0.041914,0.513897 -0.033111,1.756104 0.00971,1.35383 0.015864,1.518337 0.063266,1.6624 0.1866305,0.567107 0.5759052,0.916788 1.1316207,1.016537 0.1848186,0.03316 0.5656809,0.01391 0.7604633,-0.03845 z M 2.3882655,6.0349308 l 0.00746,-4.396874 1.715154,-0.00841 C 6.289052,1.6186395 6.6021174,1.6432147 7.1417617,1.8648271 7.6738029,2.0834483 8.1475268,2.5214319 8.405833,3.0335491 8.7684521,3.7525459 8.7768654,4.8247478 8.4259006,5.5740499 8.1851576,6.0877837 7.8193999,6.4607877 7.3087396,6.7133031 6.7625289,6.9834156 6.4227127,7.0307026 5.027901,7.0307026 H 4.0383714 V 8.7313068 10.431906 H 3.2097608 2.3811799 Z m 3.9609318,-0.674813 c 0.2063298,-0.077918 0.4505968,-0.3292061 0.538154,-0.553618 0.055891,-0.1431874 0.067991,-0.2285467 0.067991,-0.4794496 0,-0.4010426 -0.067308,-0.5849896 -0.2986759,-0.8163536 C 6.3861032,3.2401334 6.3680513,3.2369303 5.1137138,3.2369303 H 4.0526379 l -0.00773,1.0609154 c -0.00431,0.5835332 0,1.0780878 0.0071,1.0990484 0.01166,0.03073 0.2215943,0.036148 1.083232,0.02813 0.9618769,-0.00906 1.0831027,-0.015517 1.2139373,-0.064885 z"
       id="path91" />
  </g>
</svg>
